<?xml version="1.0" standalone="no"?>
<!DOCTYPE svg PUBLIC "-//W3C//DTD SVG 20010904//EN"
 "http://www.w3.org/TR/2001/REC-SVG-20010904/DTD/svg10.dtd">
<svg version="1.0" xmlns="http://www.w3.org/2000/svg"
 width="512.000000pt" height="512.000000pt" viewBox="0 0 512.000000 512.000000"
 preserveAspectRatio="xMidYMid meet">
<metadata>
Created by potrace 1.11, written by Peter Selinger 2001-2013
</metadata>
<g transform="translate(0.000000,512.000000) scale(0.100000,-0.100000)"
fill="#000000" stroke="none">
<path d="M60 4140 l0 -680 230 0 230 0 0 -1136 0 -1137 442 -443 442 -444
1162 0 1162 0 441 447 441 447 0 1133 0 1133 230 0 230 0 0 680 0 680 -1130 0
-1130 0 0 -680 0 -680 225 0 225 0 0 -905 0 -905 -695 0 -695 0 0 905 0 905
225 0 225 0 0 680 0 680 -1130 0 -1130 0 0 -680z"/>
</g>
</svg>
